<mxfile host="Electron" agent="Mozilla/5.0 (Windows NT 10.0; Win64; x64) AppleWebKit/537.36 (KHTML, like Gecko) draw.io/24.7.17 Chrome/128.0.6613.36 Electron/32.0.1 Safari/537.36" version="24.7.17">
  <diagram name="Página-1" id="j5AMA3MKKG-HFkNEsVsC">
    <mxGraphModel dx="1592" dy="497" grid="1" gridSize="10" guides="1" tooltips="1" connect="1" arrows="1" fold="1" page="1" pageScale="1" pageWidth="827" pageHeight="1169" background="#ffffff" math="0" shadow="0">
      <root>
        <mxCell id="0" />
        <mxCell id="1" parent="0" />
        <mxCell id="EYEAUQKpjQsUeQY74ElF-3" style="edgeStyle=orthogonalEdgeStyle;rounded=0;orthogonalLoop=1;jettySize=auto;html=1;exitX=0.5;exitY=1;exitDx=0;exitDy=0;entryX=0.5;entryY=0;entryDx=0;entryDy=0;" edge="1" parent="1" source="EYEAUQKpjQsUeQY74ElF-1" target="EYEAUQKpjQsUeQY74ElF-2">
          <mxGeometry relative="1" as="geometry" />
        </mxCell>
        <mxCell id="EYEAUQKpjQsUeQY74ElF-1" value="Muerte" style="rounded=1;whiteSpace=wrap;html=1;" vertex="1" parent="1">
          <mxGeometry x="280" y="160" width="120" height="60" as="geometry" />
        </mxCell>
        <mxCell id="EYEAUQKpjQsUeQY74ElF-5" style="edgeStyle=orthogonalEdgeStyle;rounded=0;orthogonalLoop=1;jettySize=auto;html=1;exitX=0.5;exitY=1;exitDx=0;exitDy=0;" edge="1" parent="1" source="EYEAUQKpjQsUeQY74ElF-2" target="EYEAUQKpjQsUeQY74ElF-4">
          <mxGeometry relative="1" as="geometry" />
        </mxCell>
        <mxCell id="EYEAUQKpjQsUeQY74ElF-13" style="edgeStyle=orthogonalEdgeStyle;rounded=0;orthogonalLoop=1;jettySize=auto;html=1;exitX=1;exitY=0.25;exitDx=0;exitDy=0;" edge="1" parent="1" source="EYEAUQKpjQsUeQY74ElF-2">
          <mxGeometry relative="1" as="geometry">
            <mxPoint x="460" y="295" as="targetPoint" />
            <mxPoint x="450" y="270" as="sourcePoint" />
          </mxGeometry>
        </mxCell>
        <mxCell id="EYEAUQKpjQsUeQY74ElF-14" value="Se guarda la posicion de la cabeza" style="edgeLabel;html=1;align=center;verticalAlign=middle;resizable=0;points=[];" vertex="1" connectable="0" parent="EYEAUQKpjQsUeQY74ElF-13">
          <mxGeometry x="0.8678" relative="1" as="geometry">
            <mxPoint x="94" as="offset" />
          </mxGeometry>
        </mxCell>
        <mxCell id="EYEAUQKpjQsUeQY74ElF-15" style="edgeStyle=orthogonalEdgeStyle;rounded=0;orthogonalLoop=1;jettySize=auto;html=1;exitX=1;exitY=0.75;exitDx=0;exitDy=0;" edge="1" parent="1" source="EYEAUQKpjQsUeQY74ElF-2">
          <mxGeometry relative="1" as="geometry">
            <mxPoint x="460" y="325" as="targetPoint" />
          </mxGeometry>
        </mxCell>
        <mxCell id="EYEAUQKpjQsUeQY74ElF-16" value="Se comprueba si es actualizada" style="edgeLabel;html=1;align=center;verticalAlign=middle;resizable=0;points=[];" vertex="1" connectable="0" parent="EYEAUQKpjQsUeQY74ElF-15">
          <mxGeometry x="0.9003" y="-1" relative="1" as="geometry">
            <mxPoint x="83" as="offset" />
          </mxGeometry>
        </mxCell>
        <mxCell id="EYEAUQKpjQsUeQY74ElF-2" value="Se coloca cabeza en el suelo" style="rounded=1;whiteSpace=wrap;html=1;" vertex="1" parent="1">
          <mxGeometry x="280" y="280" width="120" height="60" as="geometry" />
        </mxCell>
        <mxCell id="EYEAUQKpjQsUeQY74ElF-8" style="edgeStyle=orthogonalEdgeStyle;rounded=0;orthogonalLoop=1;jettySize=auto;html=1;exitX=0.25;exitY=1;exitDx=0;exitDy=0;entryX=0.5;entryY=0;entryDx=0;entryDy=0;" edge="1" parent="1" source="EYEAUQKpjQsUeQY74ElF-4" target="EYEAUQKpjQsUeQY74ElF-6">
          <mxGeometry relative="1" as="geometry" />
        </mxCell>
        <mxCell id="EYEAUQKpjQsUeQY74ElF-9" style="edgeStyle=orthogonalEdgeStyle;rounded=0;orthogonalLoop=1;jettySize=auto;html=1;exitX=0.75;exitY=1;exitDx=0;exitDy=0;entryX=0.5;entryY=0;entryDx=0;entryDy=0;" edge="1" parent="1" source="EYEAUQKpjQsUeQY74ElF-4" target="EYEAUQKpjQsUeQY74ElF-7">
          <mxGeometry relative="1" as="geometry" />
        </mxCell>
        <mxCell id="EYEAUQKpjQsUeQY74ElF-4" value="El fantasma activa un totem" style="rounded=1;whiteSpace=wrap;html=1;" vertex="1" parent="1">
          <mxGeometry x="280" y="400" width="120" height="60" as="geometry" />
        </mxCell>
        <mxCell id="EYEAUQKpjQsUeQY74ElF-58" style="edgeStyle=orthogonalEdgeStyle;rounded=0;orthogonalLoop=1;jettySize=auto;html=1;exitX=0.5;exitY=1;exitDx=0;exitDy=0;" edge="1" parent="1" source="EYEAUQKpjQsUeQY74ElF-6" target="EYEAUQKpjQsUeQY74ElF-27">
          <mxGeometry relative="1" as="geometry" />
        </mxCell>
        <mxCell id="EYEAUQKpjQsUeQY74ElF-6" value="Si" style="rounded=1;whiteSpace=wrap;html=1;fillColor=#dae8fc;strokeColor=#6c8ebf;" vertex="1" parent="1">
          <mxGeometry x="20" y="520" width="120" height="60" as="geometry" />
        </mxCell>
        <mxCell id="EYEAUQKpjQsUeQY74ElF-32" style="edgeStyle=orthogonalEdgeStyle;rounded=0;orthogonalLoop=1;jettySize=auto;html=1;exitX=0.25;exitY=1;exitDx=0;exitDy=0;" edge="1" parent="1" source="EYEAUQKpjQsUeQY74ElF-7" target="EYEAUQKpjQsUeQY74ElF-31">
          <mxGeometry relative="1" as="geometry" />
        </mxCell>
        <mxCell id="EYEAUQKpjQsUeQY74ElF-33" style="edgeStyle=orthogonalEdgeStyle;rounded=0;orthogonalLoop=1;jettySize=auto;html=1;exitX=0.75;exitY=1;exitDx=0;exitDy=0;" edge="1" parent="1" source="EYEAUQKpjQsUeQY74ElF-7" target="EYEAUQKpjQsUeQY74ElF-30">
          <mxGeometry relative="1" as="geometry" />
        </mxCell>
        <mxCell id="EYEAUQKpjQsUeQY74ElF-7" value="No" style="rounded=1;whiteSpace=wrap;html=1;" vertex="1" parent="1">
          <mxGeometry x="540" y="520" width="120" height="60" as="geometry" />
        </mxCell>
        <mxCell id="EYEAUQKpjQsUeQY74ElF-11" value="¿Esta colocada la cabeza?" style="text;html=1;align=center;verticalAlign=middle;resizable=0;points=[];autosize=1;strokeColor=none;fillColor=none;" vertex="1" parent="1">
          <mxGeometry x="255" y="490" width="170" height="30" as="geometry" />
        </mxCell>
        <mxCell id="EYEAUQKpjQsUeQY74ElF-80" style="edgeStyle=orthogonalEdgeStyle;rounded=0;orthogonalLoop=1;jettySize=auto;html=1;exitX=0.25;exitY=1;exitDx=0;exitDy=0;" edge="1" parent="1" source="EYEAUQKpjQsUeQY74ElF-27" target="EYEAUQKpjQsUeQY74ElF-79">
          <mxGeometry relative="1" as="geometry" />
        </mxCell>
        <mxCell id="EYEAUQKpjQsUeQY74ElF-81" style="edgeStyle=orthogonalEdgeStyle;rounded=0;orthogonalLoop=1;jettySize=auto;html=1;exitX=0.75;exitY=1;exitDx=0;exitDy=0;" edge="1" parent="1" source="EYEAUQKpjQsUeQY74ElF-27" target="EYEAUQKpjQsUeQY74ElF-78">
          <mxGeometry relative="1" as="geometry" />
        </mxCell>
        <mxCell id="EYEAUQKpjQsUeQY74ElF-27" value="La cabeza se mueve hacia el totem" style="rounded=1;whiteSpace=wrap;html=1;" vertex="1" parent="1">
          <mxGeometry x="20" y="1030" width="120" height="60" as="geometry" />
        </mxCell>
        <mxCell id="EYEAUQKpjQsUeQY74ElF-41" style="edgeStyle=orthogonalEdgeStyle;rounded=0;orthogonalLoop=1;jettySize=auto;html=1;exitX=0.25;exitY=1;exitDx=0;exitDy=0;entryX=0.5;entryY=0;entryDx=0;entryDy=0;" edge="1" parent="1" source="EYEAUQKpjQsUeQY74ElF-30" target="EYEAUQKpjQsUeQY74ElF-37">
          <mxGeometry relative="1" as="geometry" />
        </mxCell>
        <mxCell id="EYEAUQKpjQsUeQY74ElF-42" style="edgeStyle=orthogonalEdgeStyle;rounded=0;orthogonalLoop=1;jettySize=auto;html=1;exitX=0.75;exitY=1;exitDx=0;exitDy=0;" edge="1" parent="1" source="EYEAUQKpjQsUeQY74ElF-30" target="EYEAUQKpjQsUeQY74ElF-38">
          <mxGeometry relative="1" as="geometry" />
        </mxCell>
        <mxCell id="EYEAUQKpjQsUeQY74ElF-30" value="Si" style="rounded=1;whiteSpace=wrap;html=1;" vertex="1" parent="1">
          <mxGeometry x="900" y="620" width="120" height="60" as="geometry" />
        </mxCell>
        <mxCell id="EYEAUQKpjQsUeQY74ElF-47" style="edgeStyle=orthogonalEdgeStyle;rounded=0;orthogonalLoop=1;jettySize=auto;html=1;exitX=0.25;exitY=1;exitDx=0;exitDy=0;entryX=0.5;entryY=0;entryDx=0;entryDy=0;" edge="1" parent="1" source="EYEAUQKpjQsUeQY74ElF-31" target="EYEAUQKpjQsUeQY74ElF-44">
          <mxGeometry relative="1" as="geometry" />
        </mxCell>
        <mxCell id="EYEAUQKpjQsUeQY74ElF-48" style="edgeStyle=orthogonalEdgeStyle;rounded=0;orthogonalLoop=1;jettySize=auto;html=1;exitX=0.75;exitY=1;exitDx=0;exitDy=0;entryX=0.5;entryY=0;entryDx=0;entryDy=0;" edge="1" parent="1" source="EYEAUQKpjQsUeQY74ElF-31" target="EYEAUQKpjQsUeQY74ElF-45">
          <mxGeometry relative="1" as="geometry" />
        </mxCell>
        <mxCell id="EYEAUQKpjQsUeQY74ElF-31" value="No" style="rounded=1;whiteSpace=wrap;html=1;" vertex="1" parent="1">
          <mxGeometry x="340" y="620" width="120" height="60" as="geometry" />
        </mxCell>
        <mxCell id="EYEAUQKpjQsUeQY74ElF-34" value="¿La tiene alguien?" style="text;html=1;align=center;verticalAlign=middle;resizable=0;points=[];autosize=1;strokeColor=none;fillColor=none;" vertex="1" parent="1">
          <mxGeometry x="540" y="600" width="120" height="30" as="geometry" />
        </mxCell>
        <mxCell id="EYEAUQKpjQsUeQY74ElF-61" style="edgeStyle=orthogonalEdgeStyle;rounded=0;orthogonalLoop=1;jettySize=auto;html=1;exitX=0.5;exitY=1;exitDx=0;exitDy=0;entryX=0.5;entryY=0;entryDx=0;entryDy=0;" edge="1" parent="1" source="EYEAUQKpjQsUeQY74ElF-37" target="EYEAUQKpjQsUeQY74ElF-60">
          <mxGeometry relative="1" as="geometry" />
        </mxCell>
        <mxCell id="EYEAUQKpjQsUeQY74ElF-37" value="Inventario" style="rounded=1;whiteSpace=wrap;html=1;fillColor=#dae8fc;strokeColor=#6c8ebf;" vertex="1" parent="1">
          <mxGeometry x="780" y="720" width="120" height="60" as="geometry" />
        </mxCell>
        <mxCell id="EYEAUQKpjQsUeQY74ElF-66" style="edgeStyle=orthogonalEdgeStyle;rounded=0;orthogonalLoop=1;jettySize=auto;html=1;exitX=0.5;exitY=1;exitDx=0;exitDy=0;" edge="1" parent="1" source="EYEAUQKpjQsUeQY74ElF-38" target="EYEAUQKpjQsUeQY74ElF-65">
          <mxGeometry relative="1" as="geometry" />
        </mxCell>
        <mxCell id="EYEAUQKpjQsUeQY74ElF-38" value="EChest" style="rounded=1;whiteSpace=wrap;html=1;fillColor=#dae8fc;strokeColor=#6c8ebf;" vertex="1" parent="1">
          <mxGeometry x="1020" y="720" width="120" height="60" as="geometry" />
        </mxCell>
        <mxCell id="EYEAUQKpjQsUeQY74ElF-43" value="¿Donde?" style="text;html=1;align=center;verticalAlign=middle;resizable=0;points=[];autosize=1;strokeColor=none;fillColor=none;" vertex="1" parent="1">
          <mxGeometry x="925" y="690" width="70" height="30" as="geometry" />
        </mxCell>
        <mxCell id="EYEAUQKpjQsUeQY74ElF-50" style="edgeStyle=orthogonalEdgeStyle;rounded=0;orthogonalLoop=1;jettySize=auto;html=1;exitX=0.5;exitY=1;exitDx=0;exitDy=0;" edge="1" parent="1" source="EYEAUQKpjQsUeQY74ElF-44">
          <mxGeometry relative="1" as="geometry">
            <mxPoint x="280" y="820" as="targetPoint" />
          </mxGeometry>
        </mxCell>
        <mxCell id="EYEAUQKpjQsUeQY74ElF-51" value="No puede revivir" style="edgeLabel;html=1;align=center;verticalAlign=middle;resizable=0;points=[];" vertex="1" connectable="0" parent="EYEAUQKpjQsUeQY74ElF-50">
          <mxGeometry x="0.8507" y="1" relative="1" as="geometry">
            <mxPoint x="-1" y="13" as="offset" />
          </mxGeometry>
        </mxCell>
        <mxCell id="EYEAUQKpjQsUeQY74ElF-44" value="No" style="rounded=1;whiteSpace=wrap;html=1;fillColor=#dae8fc;strokeColor=#6c8ebf;" vertex="1" parent="1">
          <mxGeometry x="220" y="720" width="120" height="60" as="geometry" />
        </mxCell>
        <mxCell id="EYEAUQKpjQsUeQY74ElF-54" style="edgeStyle=orthogonalEdgeStyle;rounded=0;orthogonalLoop=1;jettySize=auto;html=1;exitX=0.25;exitY=1;exitDx=0;exitDy=0;entryX=0.5;entryY=0;entryDx=0;entryDy=0;" edge="1" parent="1" source="EYEAUQKpjQsUeQY74ElF-45" target="EYEAUQKpjQsUeQY74ElF-52">
          <mxGeometry relative="1" as="geometry" />
        </mxCell>
        <mxCell id="EYEAUQKpjQsUeQY74ElF-55" style="edgeStyle=orthogonalEdgeStyle;rounded=0;orthogonalLoop=1;jettySize=auto;html=1;exitX=0.75;exitY=1;exitDx=0;exitDy=0;entryX=0.5;entryY=0;entryDx=0;entryDy=0;" edge="1" parent="1" source="EYEAUQKpjQsUeQY74ElF-45" target="EYEAUQKpjQsUeQY74ElF-53">
          <mxGeometry relative="1" as="geometry" />
        </mxCell>
        <mxCell id="EYEAUQKpjQsUeQY74ElF-45" value="Si" style="rounded=1;whiteSpace=wrap;html=1;" vertex="1" parent="1">
          <mxGeometry x="460" y="720" width="120" height="60" as="geometry" />
        </mxCell>
        <mxCell id="EYEAUQKpjQsUeQY74ElF-49" value="¿Sigue existiendo?" style="text;html=1;align=center;verticalAlign=middle;resizable=0;points=[];autosize=1;strokeColor=none;fillColor=none;" vertex="1" parent="1">
          <mxGeometry x="330" y="698" width="130" height="30" as="geometry" />
        </mxCell>
        <mxCell id="EYEAUQKpjQsUeQY74ElF-59" style="edgeStyle=orthogonalEdgeStyle;rounded=0;orthogonalLoop=1;jettySize=auto;html=1;exitX=0.5;exitY=1;exitDx=0;exitDy=0;entryX=0.5;entryY=0;entryDx=0;entryDy=0;" edge="1" parent="1" source="EYEAUQKpjQsUeQY74ElF-52" target="EYEAUQKpjQsUeQY74ElF-27">
          <mxGeometry relative="1" as="geometry" />
        </mxCell>
        <mxCell id="EYEAUQKpjQsUeQY74ElF-52" value="Item dropeado" style="rounded=1;whiteSpace=wrap;html=1;fillColor=#dae8fc;strokeColor=#6c8ebf;" vertex="1" parent="1">
          <mxGeometry x="340" y="840" width="120" height="60" as="geometry" />
        </mxCell>
        <mxCell id="EYEAUQKpjQsUeQY74ElF-69" style="edgeStyle=orthogonalEdgeStyle;rounded=0;orthogonalLoop=1;jettySize=auto;html=1;exitX=0.5;exitY=1;exitDx=0;exitDy=0;entryX=0.5;entryY=0;entryDx=0;entryDy=0;" edge="1" parent="1" source="EYEAUQKpjQsUeQY74ElF-53" target="EYEAUQKpjQsUeQY74ElF-68">
          <mxGeometry relative="1" as="geometry" />
        </mxCell>
        <mxCell id="EYEAUQKpjQsUeQY74ElF-53" value="En un cofre" style="rounded=1;whiteSpace=wrap;html=1;fillColor=#dae8fc;strokeColor=#6c8ebf;" vertex="1" parent="1">
          <mxGeometry x="580" y="840" width="120" height="60" as="geometry" />
        </mxCell>
        <mxCell id="EYEAUQKpjQsUeQY74ElF-64" style="edgeStyle=orthogonalEdgeStyle;rounded=0;orthogonalLoop=1;jettySize=auto;html=1;exitX=0.5;exitY=1;exitDx=0;exitDy=0;entryX=1;entryY=0.25;entryDx=0;entryDy=0;" edge="1" parent="1" source="EYEAUQKpjQsUeQY74ElF-60" target="EYEAUQKpjQsUeQY74ElF-4">
          <mxGeometry relative="1" as="geometry">
            <Array as="points">
              <mxPoint x="840" y="1020" />
              <mxPoint x="1280" y="1020" />
              <mxPoint x="1280" y="415" />
            </Array>
          </mxGeometry>
        </mxCell>
        <mxCell id="EYEAUQKpjQsUeQY74ElF-60" value="El jugador escucha&lt;div&gt;muchos susurros y en su interfaz, la cabeza vibra hasta que la cabeza deje de estar en su inventario&lt;/div&gt;" style="rounded=1;whiteSpace=wrap;html=1;" vertex="1" parent="1">
          <mxGeometry x="780" y="840" width="120" height="100" as="geometry" />
        </mxCell>
        <mxCell id="EYEAUQKpjQsUeQY74ElF-67" style="edgeStyle=orthogonalEdgeStyle;rounded=0;orthogonalLoop=1;jettySize=auto;html=1;exitX=1;exitY=0.5;exitDx=0;exitDy=0;entryX=0.985;entryY=0.762;entryDx=0;entryDy=0;entryPerimeter=0;" edge="1" parent="1" source="EYEAUQKpjQsUeQY74ElF-65" target="EYEAUQKpjQsUeQY74ElF-4">
          <mxGeometry relative="1" as="geometry">
            <mxPoint x="420" y="450" as="targetPoint" />
            <Array as="points">
              <mxPoint x="1200" y="890" />
              <mxPoint x="1200" y="446" />
            </Array>
          </mxGeometry>
        </mxCell>
        <mxCell id="EYEAUQKpjQsUeQY74ElF-65" value="Solo el jugador que tiene en su echest la cabeza, ve todos los echests con efectos especiales y susuros, la cabeza se agita" style="rounded=1;whiteSpace=wrap;html=1;" vertex="1" parent="1">
          <mxGeometry x="1020" y="840" width="120" height="100" as="geometry" />
        </mxCell>
        <mxCell id="EYEAUQKpjQsUeQY74ElF-70" style="edgeStyle=orthogonalEdgeStyle;rounded=0;orthogonalLoop=1;jettySize=auto;html=1;exitX=1;exitY=0.5;exitDx=0;exitDy=0;endArrow=none;endFill=0;" edge="1" parent="1" source="EYEAUQKpjQsUeQY74ElF-68">
          <mxGeometry relative="1" as="geometry">
            <mxPoint x="840" y="1020" as="targetPoint" />
          </mxGeometry>
        </mxCell>
        <mxCell id="EYEAUQKpjQsUeQY74ElF-68" value="El cofre tiene efectos especiales que ven todos, la cabeza se agita" style="rounded=1;whiteSpace=wrap;html=1;" vertex="1" parent="1">
          <mxGeometry x="580" y="985" width="120" height="70" as="geometry" />
        </mxCell>
        <mxCell id="EYEAUQKpjQsUeQY74ElF-74" style="edgeStyle=orthogonalEdgeStyle;rounded=0;orthogonalLoop=1;jettySize=auto;html=1;exitX=0.5;exitY=1;exitDx=0;exitDy=0;entryX=0.5;entryY=0;entryDx=0;entryDy=0;" edge="1" parent="1" source="EYEAUQKpjQsUeQY74ElF-71" target="EYEAUQKpjQsUeQY74ElF-73">
          <mxGeometry relative="1" as="geometry" />
        </mxCell>
        <mxCell id="EYEAUQKpjQsUeQY74ElF-71" value="Llega y hay efectos especiales" style="rounded=1;whiteSpace=wrap;html=1;" vertex="1" parent="1">
          <mxGeometry x="160" y="1584" width="120" height="60" as="geometry" />
        </mxCell>
        <mxCell id="EYEAUQKpjQsUeQY74ElF-73" value="La persona revive y el totem se destuye" style="rounded=1;whiteSpace=wrap;html=1;" vertex="1" parent="1">
          <mxGeometry x="160" y="1694" width="120" height="60" as="geometry" />
        </mxCell>
        <mxCell id="EYEAUQKpjQsUeQY74ElF-75" value="La persona a revivir puede seguir spameando para intensificar los efectos" style="text;html=1;align=center;verticalAlign=middle;resizable=0;points=[];autosize=1;strokeColor=none;fillColor=none;" vertex="1" parent="1">
          <mxGeometry x="860" y="378" width="420" height="30" as="geometry" />
        </mxCell>
        <mxCell id="EYEAUQKpjQsUeQY74ElF-76" value="MIXIN: Las entidades no pueden pillar cabezas" style="text;html=1;align=center;verticalAlign=middle;whiteSpace=wrap;rounded=0;" vertex="1" parent="1">
          <mxGeometry x="750" y="160" width="160" height="30" as="geometry" />
        </mxCell>
        <mxCell id="EYEAUQKpjQsUeQY74ElF-77" value="MIXIN: No dejar que las cabezas se metan en subinventarios como shulkers, mochilas, etc" style="text;html=1;align=center;verticalAlign=middle;whiteSpace=wrap;rounded=0;" vertex="1" parent="1">
          <mxGeometry x="728.5" y="210" width="203" height="40" as="geometry" />
        </mxCell>
        <mxCell id="EYEAUQKpjQsUeQY74ElF-90" style="edgeStyle=orthogonalEdgeStyle;rounded=0;orthogonalLoop=1;jettySize=auto;html=1;exitX=0.5;exitY=1;exitDx=0;exitDy=0;entryX=0.5;entryY=0;entryDx=0;entryDy=0;" edge="1" parent="1" source="EYEAUQKpjQsUeQY74ElF-78" target="EYEAUQKpjQsUeQY74ElF-71">
          <mxGeometry relative="1" as="geometry" />
        </mxCell>
        <mxCell id="EYEAUQKpjQsUeQY74ElF-78" value="Si" style="rounded=1;whiteSpace=wrap;html=1;" vertex="1" parent="1">
          <mxGeometry x="140" y="1169" width="120" height="60" as="geometry" />
        </mxCell>
        <mxCell id="EYEAUQKpjQsUeQY74ElF-84" style="edgeStyle=orthogonalEdgeStyle;rounded=0;orthogonalLoop=1;jettySize=auto;html=1;exitX=0.5;exitY=1;exitDx=0;exitDy=0;entryX=0.5;entryY=0;entryDx=0;entryDy=0;" edge="1" parent="1" source="EYEAUQKpjQsUeQY74ElF-79" target="EYEAUQKpjQsUeQY74ElF-83">
          <mxGeometry relative="1" as="geometry" />
        </mxCell>
        <mxCell id="EYEAUQKpjQsUeQY74ElF-79" value="No" style="rounded=1;whiteSpace=wrap;html=1;" vertex="1" parent="1">
          <mxGeometry x="-110" y="1160" width="120" height="60" as="geometry" />
        </mxCell>
        <mxCell id="EYEAUQKpjQsUeQY74ElF-82" value="¿Cabeza en el overworld?" style="text;html=1;align=center;verticalAlign=middle;resizable=0;points=[];autosize=1;strokeColor=none;fillColor=none;" vertex="1" parent="1">
          <mxGeometry x="-10" y="1130" width="160" height="30" as="geometry" />
        </mxCell>
        <mxCell id="EYEAUQKpjQsUeQY74ElF-87" style="edgeStyle=orthogonalEdgeStyle;rounded=0;orthogonalLoop=1;jettySize=auto;html=1;exitX=0.25;exitY=1;exitDx=0;exitDy=0;entryX=0.5;entryY=0;entryDx=0;entryDy=0;" edge="1" parent="1" source="EYEAUQKpjQsUeQY74ElF-83" target="EYEAUQKpjQsUeQY74ElF-85">
          <mxGeometry relative="1" as="geometry" />
        </mxCell>
        <mxCell id="EYEAUQKpjQsUeQY74ElF-88" style="edgeStyle=orthogonalEdgeStyle;rounded=0;orthogonalLoop=1;jettySize=auto;html=1;exitX=0.75;exitY=1;exitDx=0;exitDy=0;entryX=0.5;entryY=0;entryDx=0;entryDy=0;" edge="1" parent="1" source="EYEAUQKpjQsUeQY74ElF-83" target="EYEAUQKpjQsUeQY74ElF-86">
          <mxGeometry relative="1" as="geometry" />
        </mxCell>
        <mxCell id="EYEAUQKpjQsUeQY74ElF-83" value="Localiza el portal mas cercano y sale por el" style="rounded=1;whiteSpace=wrap;html=1;" vertex="1" parent="1">
          <mxGeometry x="-110" y="1280" width="120" height="60" as="geometry" />
        </mxCell>
        <mxCell id="EYEAUQKpjQsUeQY74ElF-93" style="edgeStyle=orthogonalEdgeStyle;rounded=0;orthogonalLoop=1;jettySize=auto;html=1;exitX=0.5;exitY=1;exitDx=0;exitDy=0;entryX=0.5;entryY=0;entryDx=0;entryDy=0;" edge="1" parent="1" source="EYEAUQKpjQsUeQY74ElF-85" target="EYEAUQKpjQsUeQY74ElF-92">
          <mxGeometry relative="1" as="geometry" />
        </mxCell>
        <mxCell id="EYEAUQKpjQsUeQY74ElF-85" value="No" style="rounded=1;whiteSpace=wrap;html=1;" vertex="1" parent="1">
          <mxGeometry x="-230" y="1380" width="120" height="60" as="geometry" />
        </mxCell>
        <mxCell id="EYEAUQKpjQsUeQY74ElF-91" style="edgeStyle=orthogonalEdgeStyle;rounded=0;orthogonalLoop=1;jettySize=auto;html=1;exitX=0.5;exitY=1;exitDx=0;exitDy=0;entryX=0;entryY=0.25;entryDx=0;entryDy=0;" edge="1" parent="1" source="EYEAUQKpjQsUeQY74ElF-86" target="EYEAUQKpjQsUeQY74ElF-71">
          <mxGeometry relative="1" as="geometry" />
        </mxCell>
        <mxCell id="EYEAUQKpjQsUeQY74ElF-86" value="Si" style="rounded=1;whiteSpace=wrap;html=1;" vertex="1" parent="1">
          <mxGeometry x="10" y="1380" width="120" height="60" as="geometry" />
        </mxCell>
        <mxCell id="EYEAUQKpjQsUeQY74ElF-89" value="¿Hay portal?" style="text;html=1;align=center;verticalAlign=middle;resizable=0;points=[];autosize=1;strokeColor=none;fillColor=none;" vertex="1" parent="1">
          <mxGeometry x="-100" y="1360" width="90" height="30" as="geometry" />
        </mxCell>
        <mxCell id="EYEAUQKpjQsUeQY74ElF-94" style="edgeStyle=orthogonalEdgeStyle;rounded=0;orthogonalLoop=1;jettySize=auto;html=1;exitX=0.5;exitY=1;exitDx=0;exitDy=0;entryX=0;entryY=0.75;entryDx=0;entryDy=0;" edge="1" parent="1" source="EYEAUQKpjQsUeQY74ElF-92" target="EYEAUQKpjQsUeQY74ElF-71">
          <mxGeometry relative="1" as="geometry" />
        </mxCell>
        <mxCell id="EYEAUQKpjQsUeQY74ElF-92" value="?" style="rounded=1;whiteSpace=wrap;html=1;" vertex="1" parent="1">
          <mxGeometry x="-230" y="1480" width="120" height="60" as="geometry" />
        </mxCell>
      </root>
    </mxGraphModel>
  </diagram>
</mxfile>
